# xmcd
#
# Track frame offsets: 
#        150
#        25629
#        34846
#        92488
#        115787
#        131047
#        150687
#        187301
#
# Disc length: 3561 seconds
#
# Revision: 2
# Processed by: cddbd v1.5.2PL0 Copyright (c) Steve Scherf et al.
# Submitted via: ExactAudioCopy v0.99pb5
#
DISCID=620de708
DTITLE=Various Artist - Klara Off Beat, A Jef Neve Compilation (2CD2)
DYEAR=2008
DGENRE=Jazz
TTITLE0=Shirley Horn - Here's to Life
TTITLE1=Oscar Peterson - Mumbles
TTITLE2=Dizzy Gillespie, Sonny Stitt and Stan Getz - Bebop
TTITLE3=Chris Potter - Lotus Blossom
TTITLE4=Billie Holiday - All the Way
TTITLE5=Anouar Brahem - Aube Rouge à Grozny
TTITLE6=Charlie Haden - Solamente Una Vez
TTITLE7=Branford Marsalis Quartet - Eternal
EXTD=
EXTT0=
EXTT1=
EXTT2=
EXTT3=
EXTT4=
EXTT5=
EXTT6=
EXTT7=
PLAYORDER=
